<svg width="42" height="31" viewBox="0 0 42 31" fill="none" xmlns="http://www.w3.org/2000/svg">
<path d="M35.3617 19.2912L32.4311 11.142H30.8546V0.126953H0.435059V30.5562H30.8546V15.8503L33.8163 23.2415H36.8617L41.7131 11.142H38.3163L35.3617 19.2912ZM11.0904 6.21256C11.4355 6.21633 11.7717 6.32215 12.0568 6.51668C12.3418 6.71122 12.563 6.98577 12.6924 7.30577C12.8217 7.62577 12.8536 7.97691 12.7839 8.31498C12.7142 8.65305 12.546 8.96292 12.3006 9.20559C12.0552 9.44826 11.7435 9.61287 11.4047 9.67869C11.066 9.74451 10.7154 9.7086 10.397 9.57548C10.0786 9.44236 9.80671 9.21799 9.61555 8.93062C9.42438 8.64324 9.32249 8.30571 9.32271 7.96053C9.32349 7.72949 9.36989 7.50088 9.45926 7.28783C9.54862 7.07478 9.67918 6.88149 9.84344 6.71907C10.0077 6.55665 10.2024 6.42829 10.4164 6.34136C10.6304 6.25444 10.8595 6.21067 11.0904 6.21256ZM22.9578 22.939C21.1578 22.939 20.2972 21.8701 20.2972 20.4079C20.2958 19.9666 20.3574 19.5274 20.4801 19.1035L21.3406 16.0249C21.4314 15.72 21.4753 15.4031 21.4709 15.0851C21.4709 14.094 20.8733 13.4938 19.9064 13.4938C18.6801 13.4938 17.8745 14.3737 17.4538 16.0703L15.7805 22.7656H12.8629L13.3865 20.6638C12.5283 22.0746 11.3355 22.9486 9.86414 22.9486C8.09044 22.9486 7.25498 21.9263 7.25498 20.3864C7.25861 19.9436 7.31112 19.5025 7.41155 19.0712L8.74183 13.6337H6.68127L7.30757 11.3237H12.2641L10.3076 19.088C10.1978 19.4775 10.1364 19.879 10.1247 20.2836C10.1247 20.7809 10.3637 20.9256 10.751 21.0117C10.9841 21.0643 12.8378 21.0272 13.8466 18.7831L15.1327 13.642H13.0446L13.6709 11.3321H18.1327L17.5578 13.9553C18.3406 12.493 19.9064 11.105 21.4446 11.105C23.0892 11.105 24.4458 12.2754 24.4458 14.5196C24.4433 15.1647 24.3462 15.806 24.1578 16.423L23.3211 19.4227C23.246 19.6865 23.2023 19.9582 23.1908 20.2322C23.1908 20.7546 23.3988 21.0153 23.7884 21.0153C24.1781 21.0153 24.6753 20.7271 25.249 19.1358L26.3964 19.5794C25.7235 21.9479 24.502 22.939 22.9578 22.939Z" fill="white"/>
</svg>
