<svg width="45" height="55" viewBox="0 0 45 55" fill="none" xmlns="http://www.w3.org/2000/svg">
<path d="M43.4551 18.9079C39.8502 21.1355 37.6237 24.9542 37.6237 29.1972C37.6237 33.9706 40.4864 38.3197 44.8334 40.1229C43.9852 42.8809 42.7129 45.4267 41.1225 47.7603C38.79 51.0487 36.3514 54.4431 32.7466 54.4431C29.1418 54.4431 28.0816 52.3216 23.8406 52.3216C19.7057 52.3216 18.2213 54.5492 14.8286 54.5492C11.4358 54.5492 9.10325 51.473 6.45265 47.6543C2.95386 42.3505 0.939398 36.1982 0.833374 29.7276C0.833374 19.2261 7.61892 13.6041 14.4045 13.6041C18.0093 13.6041 20.978 15.9378 23.2045 15.9378C25.3249 15.9378 28.7177 13.4981 32.7466 13.4981C36.9876 13.392 41.0165 15.4074 43.4551 18.9079ZM30.8382 9.0429C32.6406 6.92139 33.5948 4.26951 33.7008 1.51156C33.7008 1.19333 33.7008 0.769031 33.5948 0.450806C30.5201 0.769031 27.6575 2.25408 25.643 4.58774C23.8406 6.60317 22.7804 9.14897 22.6743 11.9069C22.6743 12.2252 22.6743 12.5434 22.7804 12.8616C22.9924 12.8616 23.3105 12.9677 23.5225 12.9677C26.3852 12.7555 29.0358 11.2705 30.8382 9.0429Z" fill="white"/>
</svg>
