<svg width="151" height="47" viewBox="0 0 151 47" fill="none" xmlns="http://www.w3.org/2000/svg">
<path d="M19.4302 16.7705V21.7909H31.5459C31.2243 24.5682 30.2593 26.7045 28.7582 28.0932C27.0427 29.8023 24.255 31.725 19.4302 31.725C12.032 31.725 6.24216 25.7432 6.24216 18.3727C6.24216 11.0023 11.9248 5.02045 19.4302 5.02045C23.3973 5.02045 26.3994 6.62273 28.5438 8.65227L32.082 5.12727C29.0799 2.24318 25.0056 0 19.4302 0C9.2443 0 0.666748 8.225 0.666748 18.3727C0.666748 28.5205 9.2443 36.7455 19.4302 36.7455C24.8983 36.7455 29.0799 34.9295 32.2965 31.6182C35.6203 28.3068 36.6925 23.6068 36.6925 19.8682C36.6925 18.6932 36.5853 17.625 36.478 16.7705H19.4302Z" fill="white"/>
<path d="M51.7032 12.6045C45.1628 12.6045 39.6946 17.6249 39.6946 24.4613C39.6946 31.2977 45.0555 36.3181 51.7032 36.3181C58.3508 36.3181 63.7117 31.4045 63.7117 24.5681C63.7117 17.6249 58.3508 12.6045 51.7032 12.6045ZM51.7032 31.7249C48.0577 31.7249 44.9483 28.734 44.9483 24.5681C44.9483 20.2954 48.0577 17.4113 51.7032 17.4113C55.3486 17.4113 58.458 20.2954 58.458 24.5681C58.458 28.734 55.3486 31.7249 51.7032 31.7249Z" fill="white"/>
<path d="M110.352 15.2749H110.138C108.958 13.8863 106.707 12.6045 103.812 12.6045C97.8075 12.6045 92.661 17.7318 92.661 24.4613C92.661 31.084 97.8075 36.3181 103.812 36.3181C106.707 36.3181 108.958 35.0363 110.138 33.6477H110.352V35.3568C110.352 39.8431 107.886 42.2999 104.026 42.2999C100.81 42.2999 98.8797 40.0568 98.022 38.0272L93.5188 39.9499C94.8054 43.0477 98.3436 46.9999 104.133 46.9999C110.245 46.9999 115.499 43.3681 115.499 34.609V13.2454H110.567V15.2749H110.352ZM104.348 31.7249C100.702 31.7249 98.022 28.6272 98.022 24.5681C98.022 20.4022 100.81 17.4113 104.348 17.4113C107.886 17.4113 110.674 20.509 110.674 24.6749C110.781 28.734 107.993 31.7249 104.348 31.7249Z" fill="white"/>
<path d="M78.4008 12.6045C71.8604 12.6045 66.3922 17.6249 66.3922 24.4613C66.3922 31.2977 71.7532 36.3181 78.4008 36.3181C85.0484 36.3181 90.4094 31.4045 90.4094 24.5681C90.4094 17.6249 85.0484 12.6045 78.4008 12.6045ZM78.4008 31.7249C74.7553 31.7249 71.646 28.734 71.646 24.5681C71.646 20.2954 74.7553 17.4113 78.4008 17.4113C82.0463 17.4113 85.1556 20.2954 85.1556 24.5681C85.1556 28.734 82.0463 31.7249 78.4008 31.7249Z" fill="white"/>
<path d="M119.466 0.534058H124.612V36.425H119.466V0.534058Z" fill="white"/>
<path d="M140.481 31.7249C137.8 31.7249 135.978 30.5499 134.691 28.0931L150.667 21.5772L150.131 20.1886C149.166 17.5181 146.056 12.6045 139.945 12.6045C133.833 12.6045 128.687 17.4113 128.687 24.4613C128.687 31.084 133.726 36.3181 140.481 36.3181C145.949 36.3181 149.058 33.0068 150.452 31.084L146.378 28.4136C144.984 30.4431 143.161 31.7249 140.481 31.7249ZM140.159 17.0909C142.304 17.0909 144.126 18.159 144.662 19.6545L133.941 24.1409C133.833 19.2272 137.479 17.0909 140.159 17.0909Z" fill="white"/>
</svg>
