<svg width="151" height="65" viewBox="0 0 151 65" fill="none" xmlns="http://www.w3.org/2000/svg">
<g clip-path="url(#clip0_100_635)">
<path d="M61.2856 22.4408H65.3376L72.2275 34.8783L79.1172 22.4408H83.0815V42.8779H79.7756V27.2144L73.7342 38.0607H70.633L64.5916 27.2144V42.8779H61.2856V22.4408Z" fill="white"/>
<path d="M93.7451 43.243C92.2139 43.243 90.8682 42.9048 89.7078 42.2284C88.5472 41.5521 87.6427 40.6154 86.9942 39.4183C86.3456 38.2213 86.0214 36.8491 86.0215 35.3017C86.0215 33.7349 86.3384 32.3481 86.9723 31.1413C87.6062 29.9347 88.4863 28.9907 89.6127 28.3092C90.7391 27.6282 92.0337 27.2875 93.4964 27.2874C94.9494 27.2874 96.2001 27.6304 97.2486 28.3165C98.2967 29.0027 99.1037 29.9638 99.6695 31.1996C100.235 32.4357 100.518 33.8858 100.518 35.5499V36.4548H89.2982C89.503 37.7007 90.0077 38.6812 90.8122 39.3963C91.6168 40.1117 92.6334 40.4693 93.8621 40.4693C94.847 40.4693 95.6955 40.3233 96.4074 40.0313C97.1192 39.7394 97.7872 39.2966 98.4115 38.703L100.167 40.8488C98.421 42.4451 96.2805 43.2431 93.7451 43.243ZM96.1588 31.1193C95.4662 30.4138 94.5593 30.061 93.438 30.0609C92.3456 30.0609 91.4314 30.421 90.6952 31.1413C89.9588 31.8615 89.4931 32.8298 89.2982 34.0463H97.3437C97.2461 32.8005 96.8511 31.8249 96.1588 31.1193Z" fill="white"/>
<path d="M104.526 30.353H101.484V27.6524H104.526V23.1854H107.715V27.6524H112.338V30.353H107.715V37.1994C107.715 38.3379 107.91 39.1505 108.3 39.6372C108.69 40.124 109.358 40.3673 110.304 40.3671C110.724 40.3671 111.08 40.35 111.372 40.316C111.665 40.2821 111.987 40.2358 112.338 40.1773V42.8487C111.937 42.9643 111.529 43.0522 111.116 43.1116C110.644 43.1809 110.167 43.215 109.69 43.2137C106.247 43.2137 104.526 41.3355 104.526 37.579V30.353Z" fill="white"/>
<path d="M128.956 42.878H125.825V40.7467C125.269 41.5448 124.562 42.1603 123.704 42.5933C122.846 43.0262 121.871 43.2428 120.778 43.243C119.433 43.243 118.241 42.8999 117.202 42.2137C116.163 41.5276 115.347 40.5837 114.752 39.3818C114.157 38.1799 113.859 36.8052 113.859 35.2579C113.859 33.7008 114.162 32.3237 114.766 31.1266C115.371 29.9297 116.207 28.9905 117.275 28.3092C118.343 27.6282 119.569 27.2875 120.954 27.2874C121.997 27.2874 122.934 27.4893 123.763 27.8933C124.58 28.288 125.289 28.877 125.825 29.6084V27.6524H128.956V42.878ZM125.767 32.9806C125.425 32.1145 124.886 31.4307 124.15 30.9295C123.414 30.4284 122.563 30.1778 121.598 30.1778C120.232 30.1778 119.145 30.6352 118.336 31.5499C117.526 32.4648 117.121 33.7007 117.122 35.2579C117.122 36.8249 117.512 38.0657 118.292 38.9804C119.072 39.8952 120.13 40.3526 121.466 40.3526C122.451 40.3526 123.329 40.0995 124.099 39.5934C124.869 39.0876 125.425 38.4064 125.767 37.5497V32.9806Z" fill="white"/>
<path d="M45.3124 21.75C42.654 21.75 40.5759 23.7481 38.6947 26.2864C36.1096 23.0016 33.9477 21.75 31.3605 21.75C26.0859 21.75 22.0444 28.6003 22.0444 35.851C22.0444 40.3883 24.244 43.25 27.9283 43.25C30.58 43.25 32.4871 42.0024 35.8774 36.0883C35.8774 36.0883 37.2907 33.5977 38.2629 31.882C38.6036 32.431 38.9624 33.0225 39.3394 33.6566L40.9292 36.3255C44.0262 41.4973 45.7517 43.25 48.8784 43.25C52.4676 43.25 54.465 40.3491 54.465 35.7176C54.465 28.1259 50.3325 21.75 45.3124 21.75ZM33.2921 34.4869C30.5433 38.7869 29.5924 39.7507 28.062 39.7507C26.487 39.7507 25.551 38.3709 25.551 35.9103C25.551 30.6466 28.1809 25.2641 31.316 25.2641C33.0137 25.2641 34.4324 26.2426 36.6056 29.3473C34.5421 32.5059 33.2921 34.4869 33.2921 34.4869ZM43.6663 33.9456L41.7655 30.7819C41.2511 29.947 40.7567 29.1785 40.2824 28.4764C41.9956 25.8376 43.4088 24.5228 45.0895 24.5228C48.5812 24.5228 51.3745 29.6531 51.3745 35.9548C51.3745 38.3569 50.5862 39.7507 48.9526 39.7507C47.387 39.7507 46.6391 38.7188 43.6663 33.9456Z" fill="white"/>
</g>
<defs>
<clipPath id="clip0_100_635">
<rect width="150" height="64.5" fill="white" transform="translate(0.5 0.25)"/>
</clipPath>
</defs>
</svg>
