<svg width="151" height="33" viewBox="0 0 151 33" fill="none" xmlns="http://www.w3.org/2000/svg">
<g clip-path="url(#clip0_100_645)">
<path d="M53.2804 18.931L52.3864 21.4613H52.3119C52.1629 20.8907 51.8897 20.0225 51.4427 18.9807L46.6496 6.94965H41.9559V26.1248H45.0602V14.2923C45.0602 13.5481 45.0602 12.7047 45.0354 11.6628C45.0106 11.1419 44.9609 10.745 44.9361 10.4473H45.0106C45.1596 11.1915 45.3334 11.7372 45.4576 12.0845L51.2192 26.0752H53.4046L59.1165 11.9605C59.2407 11.638 59.3649 10.9931 59.489 10.4473H59.5635C59.489 11.8613 59.4394 13.1264 59.4145 13.8954V26.0504H62.7175V6.90004H58.1977L53.2804 18.931ZM65.8467 12.3078H69.0751V26.0504H65.8467V12.3078ZM67.4857 6.50314C66.9394 6.50314 66.4924 6.70159 66.1198 7.04887C65.7473 7.39616 65.5486 7.84267 65.5486 8.38841C65.5486 8.90934 65.7473 9.35585 66.1198 9.70314C66.4924 10.0504 66.9394 10.2241 67.4857 10.2241C68.0321 10.2241 68.5039 10.0256 68.8516 9.70314C69.2241 9.35585 69.4228 8.90934 69.4228 8.38841C69.4228 7.86748 69.2241 7.42097 68.8516 7.04887C68.5288 6.70159 68.0569 6.50314 67.4857 6.50314ZM80.5238 12.1838C79.9278 12.0597 79.3069 11.9853 78.7109 11.9853C77.2457 11.9853 75.9046 12.3078 74.7871 12.9528C73.6695 13.5977 72.7755 14.4907 72.2043 15.607C71.6082 16.7481 71.3102 18.0628 71.3102 19.576C71.3102 20.8907 71.6082 22.0566 72.1794 23.1233C72.7506 24.1652 73.5453 25.0086 74.6132 25.5791C75.6314 26.1497 76.8235 26.4473 78.1645 26.4473C79.7043 26.4473 81.0205 26.1248 82.0635 25.5295L82.0884 25.5047V22.5279L81.9642 22.6272C81.4924 22.9745 80.946 23.2721 80.3996 23.4458C79.8284 23.6442 79.3069 23.7434 78.8599 23.7434C77.5685 23.7434 76.5503 23.3714 75.8301 22.5528C75.0851 21.759 74.7126 20.6675 74.7126 19.3031C74.7126 17.8892 75.0851 16.7729 75.8549 15.9543C76.6248 15.1357 77.643 14.714 78.8847 14.714C79.9278 14.714 80.9957 15.0613 81.9642 15.7559L82.0884 15.8551V12.7047L82.0635 12.6799C81.6414 12.5062 81.1695 12.3078 80.5238 12.1838ZM91.1778 12.0845C90.3831 12.0845 89.6381 12.3326 88.9924 12.8535C88.446 13.3 88.0735 13.945 87.7506 14.714H87.7258V12.3078H84.4973V26.0504H87.7258V19.0303C87.7258 17.8396 87.9741 16.8473 88.5205 16.1279C89.0669 15.3838 89.7622 15.0117 90.6066 15.0117C90.9046 15.0117 91.2026 15.0861 91.5751 15.1357C91.9228 15.2349 92.1712 15.3341 92.345 15.4582L92.4692 15.5574V12.3326L92.3947 12.3078C92.1712 12.159 91.7241 12.0845 91.1778 12.0845ZM99.9692 12.0101C97.7092 12.0101 95.8963 12.6799 94.6298 13.9946C93.3384 15.3093 92.7175 17.1202 92.7175 19.4024C92.7175 21.5357 93.3632 23.2721 94.6049 24.5372C95.8467 25.7776 97.5354 26.4225 99.6463 26.4225C101.857 26.4225 103.62 25.7528 104.886 24.4132C106.178 23.0737 106.799 21.2876 106.799 19.0799C106.799 16.8969 106.203 15.1605 104.986 13.8954C103.819 12.6303 102.105 12.0101 99.9692 12.0101ZM102.552 22.5776C101.956 23.3465 101.012 23.7186 99.845 23.7186C98.6778 23.7186 97.7341 23.3465 97.0635 22.5279C96.393 21.759 96.0702 20.6427 96.0702 19.2287C96.0702 17.7652 96.4179 16.6489 97.0635 15.8551C97.7341 15.0613 98.653 14.6644 99.8202 14.6644C100.963 14.6644 101.857 15.0365 102.502 15.8055C103.148 16.5745 103.496 17.6907 103.496 19.1543C103.446 20.6427 103.173 21.8086 102.552 22.5776ZM114.001 18.0132C112.982 17.5915 112.337 17.269 112.039 16.9962C111.79 16.7481 111.666 16.4008 111.666 15.9543C111.666 15.5822 111.815 15.2101 112.188 14.9621C112.56 14.714 112.982 14.59 113.603 14.59C114.15 14.59 114.721 14.6892 115.267 14.838C115.814 14.9869 116.31 15.2101 116.708 15.5078L116.832 15.607V12.5807L116.757 12.5559C116.385 12.407 115.888 12.2582 115.292 12.1341C114.696 12.0349 114.15 11.9853 113.703 11.9853C112.163 11.9853 110.896 12.3574 109.903 13.176C108.91 13.945 108.438 14.9869 108.438 16.2024C108.438 16.8473 108.537 17.4179 108.761 17.8892C108.984 18.3605 109.307 18.807 109.754 19.1791C110.201 19.5264 110.847 19.9233 111.741 20.2954C112.486 20.6179 113.057 20.8659 113.405 21.0644C113.752 21.2628 113.976 21.4861 114.15 21.6597C114.274 21.8582 114.348 22.1062 114.348 22.4287C114.348 23.3465 113.653 23.7931 112.237 23.7931C111.691 23.7931 111.12 23.6938 110.449 23.4706C109.779 23.2473 109.158 22.9248 108.636 22.5528L108.512 22.4535V25.6039L108.587 25.6287C109.059 25.852 109.63 26.0008 110.325 26.1745C111.021 26.2985 111.641 26.3977 112.188 26.3977C113.852 26.3977 115.218 26.0256 116.186 25.207C117.179 24.4132 117.701 23.3962 117.701 22.0814C117.701 21.1636 117.453 20.345 116.906 19.7248C116.186 19.1295 115.292 18.5093 114.001 18.0132ZM126.219 12.0101C123.959 12.0101 122.146 12.6799 120.88 13.9946C119.613 15.3093 118.968 17.1202 118.968 19.4024C118.968 21.5357 119.613 23.2721 120.855 24.5372C122.097 25.7776 123.785 26.4225 125.896 26.4225C128.107 26.4225 129.87 25.7528 131.136 24.4132C132.428 23.0737 133.049 21.2876 133.049 19.0799C133.049 16.8969 132.453 15.1605 131.236 13.8954C130.069 12.6303 128.355 12.0101 126.219 12.0101ZM128.777 22.5776C128.181 23.3465 127.237 23.7186 126.07 23.7186C124.878 23.7186 123.959 23.3465 123.289 22.5279C122.618 21.759 122.295 20.6427 122.295 19.2287C122.295 17.7652 122.643 16.6489 123.289 15.8551C123.959 15.0613 124.878 14.6644 126.045 14.6644C127.163 14.6644 128.082 15.0365 128.727 15.8055C129.373 16.5745 129.721 17.6907 129.721 19.1543C129.721 20.6427 129.398 21.8086 128.777 22.5776ZM150.309 14.9621V12.3078H147.055V8.23957L146.956 8.26438L143.876 9.18221L143.802 9.20701V12.3078H138.934V10.5714C138.934 9.77756 139.133 9.1574 139.481 8.7605C139.828 8.3636 140.35 8.16515 140.996 8.16515C141.443 8.16515 141.915 8.26438 142.436 8.48763L142.56 8.56205V5.75895L142.486 5.73415C142.039 5.58531 141.443 5.48608 140.673 5.48608C139.704 5.48608 138.86 5.70934 138.09 6.08143C137.32 6.50314 136.749 7.07368 136.327 7.84267C135.905 8.58686 135.681 9.43027 135.681 10.3977V12.3078H133.421V14.9372H135.681V26.0504H138.934V14.9621H143.802V22.0318C143.802 24.9341 145.168 26.3977 147.9 26.3977C148.347 26.3977 148.819 26.3233 149.266 26.2489C149.737 26.1497 150.085 26.0256 150.284 25.9264L150.309 25.9016V23.2473L150.184 23.3465C149.986 23.4706 149.812 23.5698 149.514 23.6442C149.266 23.7186 149.042 23.7434 148.868 23.7434C148.222 23.7434 147.775 23.5946 147.453 23.2225C147.155 22.8752 147.006 22.3047 147.006 21.4613V14.9621H150.309Z" fill="white"/>
<path d="M0.333374 0.5H15.5569V15.7062H0.333374V0.5Z" fill="white"/>
<path d="M17.1462 0.5H32.3698V15.7062H17.1462V0.5Z" fill="white"/>
<path d="M0.333374 17.2938H15.5569V32.5H0.333374V17.2938Z" fill="white"/>
<path d="M17.1462 17.2938H32.3698V32.5H17.1462V17.2938Z" fill="white"/>
</g>
<defs>
<clipPath id="clip0_100_645">
<rect width="150" height="32" fill="white" transform="translate(0.333374 0.5)"/>
</clipPath>
</defs>
</svg>
