<svg width="76" height="31" viewBox="0 0 76 31" fill="none" xmlns="http://www.w3.org/2000/svg">
<path d="M14.7449 28.4092H0.166748V30.5H14.7449V28.4092Z" fill="white"/>
<path d="M14.7449 24.4154H0.166748V26.5062H14.7449V24.4154Z" fill="white"/>
<path d="M10.5964 20.4216H4.33862V22.5125H10.5964V20.4216Z" fill="white"/>
<path d="M10.5964 16.4514H4.33862V18.5423H10.5964V16.4514Z" fill="white"/>
<path d="M10.5964 12.4578H4.33862V14.5486H10.5964V12.4578Z" fill="white"/>
<path d="M10.5964 8.46399H4.33862V10.5548H10.5964V8.46399Z" fill="white"/>
<path d="M14.7449 4.49377H0.166748V6.58461H14.7449V4.49377Z" fill="white"/>
<path d="M14.7449 0.5H0.166748V2.59084H14.7449V0.5Z" fill="white"/>
<path d="M16.8308 26.5062H39.073C39.448 25.8485 39.7292 25.1437 39.9167 24.4154H16.8308V26.5062Z" fill="white"/>
<path d="M37.3152 16.4514H21.0027V18.5423H39.073C38.6042 17.7435 38.0183 17.0387 37.3152 16.4514Z" fill="white"/>
<path d="M21.0027 12.4578V14.5486H37.3152C38.0183 13.9613 38.6042 13.2565 39.0496 12.4578H21.0027Z" fill="white"/>
<path d="M39.073 4.49377H16.8308V6.58461H39.8933C39.7292 5.83285 39.448 5.12807 39.073 4.49377Z" fill="white"/>
<path d="M32.1824 0.5H16.8308V2.59084H37.5496C36.073 1.25176 34.1511 0.5 32.1824 0.5Z" fill="white"/>
<path d="M27.2605 8.46399H21.0027V10.5548H27.2605V8.46399Z" fill="white"/>
<path d="M33.1199 10.5548H39.8464C40.0339 9.87354 40.1277 9.16877 40.1277 8.46399H33.1199V10.5548Z" fill="white"/>
<path d="M27.2605 20.4216H21.0027V22.5125H27.2605V20.4216Z" fill="white"/>
<path d="M33.1199 20.4216V22.5125H40.1277C40.1277 21.8077 40.0339 21.1029 39.8464 20.4216H33.1199Z" fill="white"/>
<path d="M16.8308 30.4765L32.1824 30.5C34.1746 30.5 36.0964 29.7483 37.5496 28.4092H16.8308V30.4765Z" fill="white"/>
<path d="M58.5027 30.5L59.2292 28.4092H57.7761L58.5027 30.5Z" fill="white"/>
<path d="M57.1199 26.5062H59.8855L60.6121 24.4154H56.3699L57.1199 26.5062Z" fill="white"/>
<path d="M55.7136 22.5125H61.2917L62.0183 20.4216H54.9871L55.7136 22.5125Z" fill="white"/>
<path d="M54.3074 18.5423H62.6746L63.4246 16.4514H53.5808L54.3074 18.5423Z" fill="white"/>
<path d="M46.0105 10.5548H57.2605L56.5339 8.46399H46.0105V10.5548Z" fill="white"/>
<path d="M61.1277 6.58461H75.1667V4.49377H61.8542L61.1277 6.58461Z" fill="white"/>
<path d="M63.2371 0.5L62.5105 2.59084H75.1667V0.5H63.2371Z" fill="white"/>
<path d="M52.2449 28.4092H41.8386V30.5H52.2449V28.4092Z" fill="white"/>
<path d="M52.2449 24.4154H41.8386V26.5062H52.2449V24.4154Z" fill="white"/>
<path d="M52.2683 20.4216H46.0105V22.5125H52.2683V20.4216Z" fill="white"/>
<path d="M52.2683 16.4514H46.0105V18.5423H52.2683V16.4514Z" fill="white"/>
<path d="M70.9949 8.46399H60.4714L59.7449 10.5548H70.9949V8.46399Z" fill="white"/>
<path d="M64.7605 14.5486H70.9949V12.4578H64.7605H59.0886L58.5027 14.1492L57.9167 12.4578H52.2449H46.0105V14.5486H52.2449V12.6222L52.9246 14.5486H64.0808L64.7605 12.6222V14.5486Z" fill="white"/>
<path d="M71.0183 16.4514H64.7605V18.5423H71.0183V16.4514Z" fill="white"/>
<path d="M71.0183 20.4216H64.7605V22.5125H71.0183V20.4216Z" fill="white"/>
<path d="M75.1667 24.4154H64.7605V26.5062H75.1667V24.4154Z" fill="white"/>
<path d="M75.1667 28.4092H64.7605V30.5H75.1667V28.4092Z" fill="white"/>
<path d="M55.8777 6.58461L55.1511 4.49377H41.8386V6.58461H55.8777Z" fill="white"/>
<path d="M54.4949 2.59084L53.7683 0.5H41.8386V2.59084H54.4949Z" fill="white"/>
</svg>
