<svg width="40" height="43" viewBox="0 0 40 43" fill="none" xmlns="http://www.w3.org/2000/svg">
<path d="M38.1398 8.09511C38.1398 11.7968 34.1312 14.7975 29.1863 14.7975H20.0002V1.3927H29.1863C34.1312 1.3927 38.1398 4.39347 38.1398 8.09511Z" stroke="white" stroke-width="3.99066"/>
<path d="M1.8606 8.09511C1.8606 11.7968 5.8692 14.7975 10.8141 14.7975H20.0001V1.3927H10.8141C5.8692 1.3927 1.8606 4.39347 1.8606 8.09511Z" stroke="white" stroke-width="3.99066"/>
<path d="M1.8606 21.5003C1.8606 25.2019 5.8692 28.2027 10.8141 28.2027H20.0001V14.7979H10.8141C5.8692 14.7979 1.8606 17.7986 1.8606 21.5003Z" stroke="white" stroke-width="3.99066"/>
<path d="M1.8606 34.9047C1.8606 38.6064 5.92697 41.6071 10.8719 41.6071C15.8809 41.6071 20.0001 38.5674 20.0001 34.8177V28.2023H10.8141C5.8692 28.2023 1.8606 31.203 1.8606 34.9047Z" stroke="white" stroke-width="3.99066"/>
<path d="M20.0002 21.5003C20.0002 25.2019 24.0088 28.2027 28.9537 28.2027H29.1863C34.1312 28.2027 38.1398 25.2019 38.1398 21.5003C38.1398 17.7986 34.1312 14.7979 29.1863 14.7979H28.9537C24.0088 14.7979 20.0002 17.7986 20.0002 21.5003Z" stroke="white" stroke-width="3.99066"/>
</svg>
