<svg width="40" height="40" viewBox="0 0 40 40" fill="none" xmlns="http://www.w3.org/2000/svg">
<rect width="40" height="40" rx="20" fill="#773CD2"/>
<path d="M7.6 26.5C6.6 24.5 6 22.3 6 20C6 12.3 12.3 6 20 6V8C13.4 8 8 13.4 8 20C8 22 8.5 23.8 9.4 25.5L7.6 26.5ZM32 20C32 26.6 26.6 32 20 32C17.1 32 14.4 31 12.3 29.2L18 23.5L16.6 22L10.1 28.5C9.7 28.9 9.7 29.5 10.1 29.9C12.7 32.5 16.3 34 20 34C27.7 34 34 27.7 34 20H32Z" fill="white"/>
<path d="M22.0003 29C21.9003 29 21.7003 29 21.6003 28.9C21.3003 28.8 21.0003 28.5 21.0003 28.1L20.3003 23.1L22.3003 22.8L22.7003 26.1L24.9003 24.4V19C24.9003 18.7 25.0003 18.5 25.2003 18.3L28.4003 15.1C29.3003 14.2 29.9003 12.9 29.9003 11.6V10H28.4003C27.1003 10 25.8003 10.5 24.9003 11.5L21.7003 14.7C21.5003 14.9 21.3003 15 21.0003 15H15.5003L13.8003 17.2L17.1003 17.6L16.8003 19.6L11.8003 18.9C11.4003 18.9 11.1003 18.6 11.0003 18.3C10.9003 18 10.9003 17.6 11.1003 17.3L14.1003 13.3C14.4003 13.1 14.7003 13 15.0003 13H20.6003L23.6003 10C24.9003 8.7 26.7003 8 28.5003 8H30.0003C31.1003 8 32.0003 8.9 32.0003 10V11.5C32.0003 13.4 31.3003 15.1 30.0003 16.4L27.0003 19.4V25C27.0003 25.3 26.9003 25.6 26.6003 25.8L22.6003 28.8C22.4003 28.9 22.2003 29 22.0003 29Z" fill="white"/>
</svg>
