<svg width="40" height="40" viewBox="0 0 40 40" fill="none" xmlns="http://www.w3.org/2000/svg">
<rect width="40" height="40" rx="20" fill="#773CD2"/>
<path d="M13.0907 33.3333V29.524C12.6933 25.5547 8 23.4293 8 17.3333C8 11.24 11.636 6.592 18.9093 6.66667C24.1453 6.72267 29.0907 9.71467 29.0907 15.8107L32 20.3813C32 23.4293 29.0907 23.4293 29.0907 23.4293C29.0907 23.4293 29.8187 31.048 23.272 31.048V33.3333" stroke="white" stroke-width="2" stroke-linecap="round" stroke-linejoin="round"/>
<path d="M18.6667 20C19.3739 20 20.0522 19.719 20.5523 19.219C21.0524 18.7189 21.3333 18.0406 21.3333 17.3333C21.3333 16.6261 21.0524 15.9478 20.5523 15.4477C20.0522 14.9476 19.3739 14.6667 18.6667 14.6667C17.9594 14.6667 17.2811 14.9476 16.781 15.4477C16.281 15.9478 16 16.6261 16 17.3333C16 18.0406 16.281 18.7189 16.781 19.219C17.2811 19.719 17.9594 20 18.6667 20Z" stroke="white" stroke-width="2" stroke-linecap="round" stroke-linejoin="round"/>
<path d="M18.667 21.3333C19.7279 21.3333 20.7453 20.9119 21.4954 20.1618C22.2456 19.4116 22.667 18.3942 22.667 17.3333C22.667 16.2725 22.2456 15.2551 21.4954 14.5049C20.7453 13.7548 19.7279 13.3333 18.667 13.3333C17.6061 13.3333 16.5887 13.7548 15.8386 14.5049C15.0884 15.2551 14.667 16.2725 14.667 17.3333C14.667 18.3942 15.0884 19.4116 15.8386 20.1618C16.5887 20.9119 17.6061 21.3333 18.667 21.3333Z" stroke="white" stroke-width="2" stroke-linecap="round" stroke-linejoin="round"/>
</svg>
