<svg width="30" height="30" viewBox="0 0 30 30" fill="none" xmlns="http://www.w3.org/2000/svg">
<path d="M6.30277 18.9573C6.30277 19.5806 6.11792 20.1899 5.77161 20.7082C5.42529 21.2264 4.93305 21.6303 4.35717 21.8688C3.78128 22.1073 3.1476 22.1696 2.53629 22.0479C1.92497 21.9262 1.36347 21.6259 0.922811 21.1851C0.482151 20.7443 0.182122 20.1827 0.0606713 19.5713C-0.0607792 18.9599 0.00180455 18.3263 0.240507 17.7505C0.479209 17.1747 0.883308 16.6826 1.40169 16.3365C1.92008 15.9904 2.52946 15.8058 3.15277 15.806H6.30277V18.9573ZM7.89027 18.9573C7.89027 18.1214 8.22235 17.3197 8.81344 16.7286C9.40453 16.1375 10.2062 15.8054 11.0421 15.8054C11.8781 15.8054 12.6798 16.1375 13.2709 16.7286C13.862 17.3197 14.194 18.1214 14.194 18.9573V26.8485C14.194 27.6843 13.862 28.4858 13.271 29.0768C12.6801 29.6678 11.8785 29.9998 11.0428 29.9998C10.207 29.9998 9.40548 29.6678 8.8145 29.0768C8.22353 28.4858 7.89152 27.6843 7.89152 26.8485L7.89027 18.9573ZM11.0428 6.30228C10.4195 6.30228 9.81015 6.11744 9.2919 5.77112C8.77366 5.4248 8.36975 4.93257 8.13128 4.35668C7.89281 3.78079 7.83047 3.14711 7.95217 2.5358C8.07386 1.92448 8.37411 1.36298 8.81495 0.922323C9.25578 0.481663 9.8174 0.181634 10.4288 0.060183C11.0401 -0.0612674 11.6738 0.00131627 12.2496 0.240019C12.8254 0.478721 13.3174 0.882819 13.6636 1.4012C14.0097 1.91959 14.1943 2.52897 14.194 3.15228V6.30228H11.0428ZM11.0428 7.88979C11.8787 7.88979 12.6804 8.22186 13.2715 8.81295C13.8626 9.40404 14.1946 10.2057 14.1946 11.0417C14.1946 11.8776 13.8626 12.6793 13.2715 13.2704C12.6804 13.8615 11.8787 14.1935 11.0428 14.1935H3.15027C2.31451 14.1935 1.51298 13.8615 0.922003 13.2706C0.331029 12.6796 -0.000976562 11.878 -0.000976562 11.0423C-0.000976562 10.2065 0.331029 9.40499 0.922003 8.81402C1.51298 8.22304 2.31451 7.89103 3.15027 7.89103L11.0428 7.88979ZM23.6978 11.0423C23.6978 10.419 23.8826 9.80966 24.2289 9.29142C24.5753 8.77317 25.0675 8.36926 25.6434 8.13079C26.2193 7.89232 26.8529 7.82998 27.4643 7.95168C28.0756 8.07337 28.6371 8.37362 29.0777 8.81446C29.5184 9.25529 29.8184 9.81691 29.9399 10.4283C30.0613 11.0396 29.9987 11.6733 29.76 12.2491C29.5213 12.8249 29.1172 13.3169 28.5989 13.6631C28.0805 14.0092 27.4711 14.1938 26.8478 14.1935H23.6978V11.0423ZM22.1103 11.0423C22.1103 11.8782 21.7782 12.6799 21.1871 13.271C20.596 13.8621 19.7943 14.1942 18.9584 14.1942C18.1225 14.1942 17.3208 13.8621 16.7297 13.271C16.1386 12.6799 15.8065 11.8782 15.8065 11.0423V3.14979C15.8065 2.31402 16.1385 1.51249 16.7295 0.921515C17.3205 0.330541 18.122 -0.00146484 18.9578 -0.00146484C19.7935 -0.00146484 20.5951 0.330541 21.186 0.921515C21.777 1.51249 22.109 2.31402 22.109 3.14979L22.1103 11.0423ZM18.9578 23.6973C19.5811 23.6973 20.1904 23.8821 20.7086 24.2285C21.2269 24.5748 21.6308 25.067 21.8693 25.6429C22.1077 26.2188 22.1701 26.8525 22.0484 27.4638C21.9267 28.0751 21.6264 28.6366 21.1856 29.0772C20.7448 29.5179 20.1831 29.8179 19.5718 29.9394C18.9604 30.0608 18.3268 29.9983 17.751 29.7596C17.1752 29.5208 16.6831 29.1167 16.337 28.5984C15.9909 28.08 15.8063 27.4706 15.8065 26.8473V23.6973H18.9578ZM18.9578 22.1098C18.1218 22.1098 17.3202 21.7777 16.7291 21.1866C16.138 20.5955 15.8059 19.7938 15.8059 18.9579C15.8059 18.122 16.138 17.3203 16.7291 16.7292C17.3202 16.1381 18.1218 15.806 18.9578 15.806H26.849C27.6848 15.806 28.4863 16.138 29.0773 16.729C29.6683 17.32 30.0003 18.1215 30.0003 18.9573C30.0003 19.793 29.6683 20.5946 29.0773 21.1856C28.4863 21.7765 27.6848 22.1085 26.849 22.1085L18.9578 22.1098Z" fill="white"/>
</svg>
