<svg width="40" height="40" viewBox="0 0 40 40" fill="none" xmlns="http://www.w3.org/2000/svg">
<rect width="40" height="40" rx="8" fill="#773CD2"/>
<path d="M7.49967 25.3334V25.8334H7.99967H18.7611C19.6601 27.0466 20.8251 28.0374 22.1663 28.7301V30.6667V31.1667H22.6663H24.833V32.8334H15.1663V31.1667H17.333H17.833V30.6667V28.0001V27.5001H17.333L8.00117 27.5001C8.00096 27.5001 8.00076 27.5001 8.00056 27.5001C7.42627 27.4982 6.87603 27.2692 6.46994 26.8631C6.06387 26.4571 5.83491 25.9069 5.83301 25.3326V9.3342C5.83491 8.75995 6.06387 8.20975 6.46994 7.80368C6.87601 7.39761 7.42621 7.16865 8.00046 7.16675H31.9989C32.5731 7.16865 33.1233 7.39761 33.5294 7.80368C33.9355 8.20977 34.1645 8.76001 34.1663 9.3343C34.1663 9.3345 34.1663 9.33471 34.1663 9.33491L34.1663 13.6612C33.6741 13.0781 33.115 12.5527 32.4997 12.0963V9.33341V8.83341H31.9997H7.99967H7.49967V9.33341V25.3334Z" fill="white" stroke="white"/>
<path d="M26.667 12.5L26.6672 12.5C27.6521 12.4997 28.6275 12.6934 29.5376 13.0702C30.4477 13.447 31.2746 13.9994 31.9711 14.6959C32.6676 15.3924 33.22 16.2193 33.5968 17.1294C33.9736 18.0395 34.1673 19.0148 34.167 19.9998V20C34.167 21.4834 33.7271 22.9334 32.903 24.1668C32.0789 25.4001 30.9076 26.3614 29.5371 26.9291C28.1667 27.4968 26.6587 27.6453 25.2038 27.3559C23.749 27.0665 22.4126 26.3522 21.3637 25.3033C20.3148 24.2544 19.6005 22.918 19.3111 21.4632C19.0217 20.0083 19.1702 18.5003 19.7379 17.1299C20.3056 15.7594 21.2668 14.5881 22.5002 13.764C23.7336 12.9399 25.1836 12.5 26.667 12.5ZM26.667 25.8333H26.6676C28.214 25.8314 29.6964 25.2163 30.7898 24.1228C31.8833 23.0294 32.4984 21.547 32.5003 20.0006V20C32.5003 18.8463 32.1582 17.7185 31.5172 16.7592C30.8763 15.7999 29.9652 15.0522 28.8993 14.6107C27.8334 14.1692 26.6605 14.0537 25.529 14.2788C24.3974 14.5038 23.358 15.0594 22.5422 15.8752C21.7264 16.691 21.1708 17.7304 20.9457 18.862C20.7207 19.9935 20.8362 21.1664 21.2777 22.2323C21.7192 23.2982 22.4669 24.2093 23.4262 24.8502C24.3855 25.4912 25.5133 25.8333 26.667 25.8333Z" fill="white" stroke="white"/>
<path d="M26.6663 21.3334C27.4027 21.3334 27.9997 20.7365 27.9997 20.0001C27.9997 19.2637 27.4027 18.6667 26.6663 18.6667C25.93 18.6667 25.333 19.2637 25.333 20.0001C25.333 20.7365 25.93 21.3334 26.6663 21.3334Z" fill="white"/>
</svg>
