<svg width="32" height="32" viewBox="0 0 32 32" fill="none" xmlns="http://www.w3.org/2000/svg">
<rect width="32" height="32" rx="4" fill="white"/>
<path d="M21.333 10.667C23.4547 10.667 25.4896 11.5098 26.9899 13.0101C28.4902 14.5104 29.333 16.5453 29.333 18.667V28.0003H23.9997V18.667C23.9997 17.9597 23.7187 17.2815 23.2186 16.7814C22.7185 16.2813 22.0403 16.0003 21.333 16.0003C20.6258 16.0003 19.9475 16.2813 19.4474 16.7814C18.9473 17.2815 18.6663 17.9597 18.6663 18.667V28.0003H13.333V18.667C13.333 16.5453 14.1759 14.5104 15.6762 13.0101C17.1764 11.5098 19.2113 10.667 21.333 10.667Z" fill="#773CD2"/>
<path d="M8.00033 12H2.66699V28H8.00033V12Z" fill="#773CD2"/>
<path d="M5.33366 8.00033C6.80642 8.00033 8.00033 6.80642 8.00033 5.33366C8.00033 3.8609 6.80642 2.66699 5.33366 2.66699C3.8609 2.66699 2.66699 3.8609 2.66699 5.33366C2.66699 6.80642 3.8609 8.00033 5.33366 8.00033Z" stroke="white" stroke-width="2" stroke-linecap="round" stroke-linejoin="round"/>
</svg>
