<svg width="41" height="40" viewBox="0 0 41 40" fill="none" xmlns="http://www.w3.org/2000/svg">
<rect x="0.5" width="40" height="40" rx="8" fill="#773CD2"/>
<path d="M16.4 21.8L16.4 21.8L13.9997 20L16.4 18.2L16.4 18.2C16.7183 17.9613 16.9287 17.606 16.9849 17.2121C17.0412 16.8183 16.9387 16.4183 16.7 16.1C16.4613 15.7817 16.106 15.5713 15.7121 15.5151C15.3183 15.4588 14.9183 15.5613 14.6 15.8L10.6 18.8C10.4137 18.9397 10.2625 19.1209 10.1584 19.3292C10.0542 19.5375 10 19.7671 10 20C10 20.2329 10.0542 20.4625 10.1584 20.6708C10.2625 20.8791 10.4137 21.0603 10.6 21.2L14.6 24.2C14.9183 24.4387 15.3183 24.5412 15.7121 24.4849C16.106 24.4287 16.4613 24.2183 16.7 23.9C16.9387 23.5817 17.0412 23.1817 16.9849 22.7879C16.9287 22.394 16.7183 22.0387 16.4 21.8ZM23.942 13.4124L23.9421 13.4124L23.9445 13.4032C24.0453 13.0235 23.993 12.6195 23.7991 12.2779C23.6051 11.9363 23.2849 11.6845 22.9073 11.5764C22.5296 11.4684 22.1246 11.5128 21.7794 11.7001C21.4341 11.8874 21.1761 12.2027 21.0608 12.5782L21.0607 12.5782L21.058 12.5876L17.0592 26.5834C17.0019 26.7724 16.9825 26.971 17.0021 27.1677C17.0219 27.3661 17.0811 27.5586 17.1762 27.7339C17.2713 27.9092 17.4004 28.0637 17.556 28.1885C17.7115 28.3133 17.8904 28.4059 18.0821 28.4607C18.2738 28.5156 18.4746 28.5316 18.6726 28.508C18.8706 28.4843 19.0619 28.4214 19.2353 28.323C19.4088 28.2245 19.5608 28.0924 19.6826 27.9345C19.8033 27.778 19.8918 27.5991 19.9432 27.4083L23.942 13.4124ZM24.6 21.8L24.6 21.8C24.2817 22.0387 24.0713 22.394 24.0151 22.7879C23.9588 23.1817 24.0613 23.5817 24.3 23.9C24.5387 24.2183 24.894 24.4287 25.2879 24.4849C25.6817 24.5412 26.0817 24.4387 26.4 24.2L30.4 21.2C30.5863 21.0603 30.7375 20.8791 30.8416 20.6708C30.9458 20.4625 31 20.2329 31 20C31 19.7671 30.9458 19.5375 30.8416 19.3292C30.7375 19.1209 30.5863 18.9397 30.4 18.8L26.4 15.8C26.2424 15.6818 26.0631 15.5958 25.8723 15.5469C25.6815 15.498 25.4829 15.4872 25.2879 15.5151C25.0929 15.5429 24.9053 15.6089 24.7358 15.7093C24.5663 15.8096 24.4182 15.9424 24.3 16.1C24.1818 16.2576 24.0958 16.4369 24.0469 16.6277C23.998 16.8185 23.9872 17.0171 24.0151 17.2121C24.0429 17.4071 24.1089 17.5947 24.2093 17.7642C24.3097 17.9337 24.4424 18.0818 24.6 18.2L24.6 18.2L27.0003 20L24.6 21.8ZM9.5 9.5H31.5C31.8978 9.5 32.2794 9.65804 32.5607 9.93934C32.842 10.2206 33 10.6022 33 11V29C33 29.3978 32.842 29.7794 32.5607 30.0607C32.2794 30.342 31.8978 30.5 31.5 30.5H9.5C9.10218 30.5 8.72064 30.342 8.43934 30.0607C8.15804 29.7794 8 29.3978 8 29V11C8 10.6022 8.15804 10.2206 8.43934 9.93934C8.72064 9.65804 9.10218 9.5 9.5 9.5Z" fill="white" stroke="white"/>
</svg>
