<svg width="40" height="40" viewBox="0 0 40 40" fill="none" xmlns="http://www.w3.org/2000/svg">
<rect width="40" height="40" rx="20" fill="#773CD2"/>
<path d="M26.667 30.6667H33.3337V28C33.3336 27.1687 33.0745 26.3581 32.5925 25.6808C32.1105 25.0036 31.4294 24.4933 30.644 24.221C29.8586 23.9487 29.0078 23.9278 28.21 24.1614C27.4122 24.3949 26.707 24.8712 26.1923 25.524M26.667 30.6667H13.3337M26.667 30.6667V28C26.667 27.1253 26.499 26.2893 26.1923 25.524M26.1923 25.524C25.6972 24.2866 24.8427 23.226 23.739 22.4788C22.6353 21.7317 21.3331 21.3324 20.0003 21.3324C18.6675 21.3324 17.3653 21.7317 16.2617 22.4788C15.158 23.226 14.3035 24.2866 13.8083 25.524M13.3337 30.6667H6.66699V28C6.66705 27.1687 6.92611 26.3581 7.40814 25.6808C7.89018 25.0036 8.57124 24.4933 9.35666 24.221C10.1421 23.9487 10.9928 23.9278 11.7906 24.1614C12.5885 24.3949 13.2937 24.8712 13.8083 25.524M13.3337 30.6667V28C13.3337 27.1253 13.5017 26.2893 13.8083 25.524M24.0003 13.3333C24.0003 14.3942 23.5789 15.4116 22.8288 16.1618C22.0786 16.9119 21.0612 17.3333 20.0003 17.3333C18.9395 17.3333 17.922 16.9119 17.1719 16.1618C16.4218 15.4116 16.0003 14.3942 16.0003 13.3333C16.0003 12.2725 16.4218 11.2551 17.1719 10.5049C17.922 9.75477 18.9395 9.33334 20.0003 9.33334C21.0612 9.33334 22.0786 9.75477 22.8288 10.5049C23.5789 11.2551 24.0003 12.2725 24.0003 13.3333ZM32.0003 17.3333C32.0003 18.0406 31.7194 18.7189 31.2193 19.219C30.7192 19.7191 30.0409 20 29.3337 20C28.6264 20 27.9481 19.7191 27.448 19.219C26.9479 18.7189 26.667 18.0406 26.667 17.3333C26.667 16.6261 26.9479 15.9478 27.448 15.4477C27.9481 14.9476 28.6264 14.6667 29.3337 14.6667C30.0409 14.6667 30.7192 14.9476 31.2193 15.4477C31.7194 15.9478 32.0003 16.6261 32.0003 17.3333ZM13.3337 17.3333C13.3337 18.0406 13.0527 18.7189 12.5526 19.219C12.0525 19.7191 11.3742 20 10.667 20C9.95975 20 9.28147 19.7191 8.78137 19.219C8.28128 18.7189 8.00033 18.0406 8.00033 17.3333C8.00033 16.6261 8.28128 15.9478 8.78137 15.4477C9.28147 14.9476 9.95975 14.6667 10.667 14.6667C11.3742 14.6667 12.0525 14.9476 12.5526 15.4477C13.0527 15.9478 13.3337 16.6261 13.3337 17.3333Z" stroke="white" stroke-width="2" stroke-linecap="round" stroke-linejoin="round"/>
</svg>
