<svg width="32" height="32" viewBox="0 0 32 32" fill="none" xmlns="http://www.w3.org/2000/svg">
<rect width="32" height="32" rx="4" fill="white"/>
<path d="M30.6663 3.99974C29.3895 4.90037 27.9758 5.58921 26.4797 6.03974C25.6767 5.11642 24.6095 4.46199 23.4224 4.16497C22.2353 3.86795 20.9857 3.94266 19.8424 4.37901C18.6992 4.81535 17.7176 5.59227 17.0303 6.60469C16.343 7.61711 15.9833 8.81618 15.9997 10.0397V11.3731C13.6565 11.4338 11.3347 10.9142 9.24102 9.86033C7.14733 8.80651 5.34676 7.25125 3.99967 5.33307C3.99967 5.33307 -1.33366 17.3331 10.6663 22.6664C7.92038 24.5304 4.64922 25.465 1.33301 25.3331C13.333 31.9997 27.9997 25.3331 27.9997 9.99974C27.9984 9.62834 27.9627 9.25786 27.893 8.89307C29.2538 7.55106 30.2141 5.85669 30.6663 3.99974Z" fill="#773CD2"/>
</svg>
